#!OML:ASF H:\Dans Jumps\Project 1\Capture day 1\Session 1\subject.ASF
:FULLY-SPECIFIED
:DEGREES
218
root 0.541539 17.3905 -14.4278 8.29643 -1.61302 -1.91315
lowerback 5.2636 -0.110244 0.790751
upperback 5.03505 -0.152732 2.09907
thorax 2.23756 -0.0916151 1.72131
lowerneck -16.4016 0.887649 -2.04881
upperneck 21.5271 1.9931 -0.861876
head 9.50179 0.656573 0.300031
rclavicle 9.24349e-015 -3.4191e-014
rhumerus -17.0252 -8.59424 -83.9575
rradius 26.8624
rwrist 28.6997
rhand -19.8101 -25.8874
rfingers 7.12502
rthumb 6.52313 -55.767
lclavicle 9.24349e-015 -3.4191e-014
lhumerus -17.0883 -9.08773 90.3301
lradius 22.9691
lwrist 8.06101
lhand -25.5533 -4.42665
lfingers 7.12502
lthumb 0.97717 25.5509
rfemur -20.3468 -1.76518 20.4648
rtibia 27.7774
rfoot -14.7957 -3.42365
rtoes 3.90415
lfemur -19.9627 8.58732 -18.9795
ltibia 26.4636
lfoot -13.3054 2.55319
ltoes -9.07412
219
root 0.542217 17.3759 -14.4611 8.48528 -1.64901 -1.91991
lowerback 5.56617 -0.100289 0.775824
upperback 5.10098 -0.13557 2.12368
thorax 2.13734 -0.0840794 1.75526
lowerneck -16.4085 0.898174 -2.05677
upperneck 21.1957 2.01354 -0.906288
head 9.38747 0.665235 0.287271
rclavicle -2.5842e-015 1.31198e-014
rhumerus -16.9681 -8.63069 -83.8294
rradius 26.9198
rwrist 28.5721
rhand -19.8517 -25.9172
rfingers 7.12502
rthumb 6.48303 -55.798
lclavicle -2.5842e-015 1.31198e-014
lhumerus -17.086 -8.98319 90.2119
lradius 23.0319
lwrist 8.18694
lhand -25.637 -4.4765
lfingers 7.12502
lthumb 0.896303 25.5014
rfemur -20.9726 -1.76499 20.4843
rtibia 28.3102
rfoot -14.8979 -3.41736
rtoes 3.76874
lfemur -20.5996 8.66955 -19.029
ltibia 27.0334
lfoot -13.4468 2.56375
ltoes -9.11785
220
root 0.542843 17.3605 -14.4952 8.68251 -1.67668 -1.93061
lowerback 5.87052 -0.0926733 0.76943
upperback 5.17333 -0.121333 2.147
thorax 2.04306 -0.0777536 1.78316
lowerneck -16.4192 0.907809 -2.06024
upperneck 20.8483 2.03129 -0.951833
head 9.26884 0.673219 0.27304
rclavicle 2.18663e-015 -7.95139e-016
rhumerus -16.9067 -8.68615 -83.699
rradius 26.9736
rwrist 28.467
rhand -19.8871 -25.9559
rfingers 7.12502
rthumb 6.44881 -55.8377
lclavicle 2.18663e-015 -7.95139e-016
lhumerus -17.0766 -8.89208 90.084
lradius 23.0849
lwrist 8.33867
lhand -25.7267 -4.527
lfingers 7.12502
lthumb 0.809683 25.4512
rfemur -21.6163 -1.77335 20.5089
rtibia 28.8558
rfoot -15.0051 -3.40665
rtoes 3.63559
lfemur -21.26 8.75626 -19.0774
ltibia 27.6207
lfoot -13.5947 2.56454
ltoes -9.1637
221
root 0.543411 17.3442 -14.5298 8.88701 -1.69871 -1.94149
lowerback 6.17355 -0.0863942 0.768679
upperback 5.25197 -0.108781 2.1672
thorax 1.95627 -0.0720794 1.80471
lowerneck -16.4308 0.918152 -2.05396
upperneck 20.4857 2.04813 -1.00282
head 9.14581 0.681268 0.25521
rclavicle 4.96962e-015 1.19271e-015
rhumerus -16.8431 -8.76315 -83.5656
rradius 27.0202
rwrist 28.384
rhand -19.9091 -25.979
rfingers 7.12502
rthumb 6.42758 -55.8615
lclavicle 4.96962e-015 1.19271e-015
lhumerus -17.0649 -8.81145 89.947
lradius 23.1294
lwrist 8.50902
lhand -25.8228 -4.5675
lfingers 7.12502
lthumb 0.716844 25.411
rfemur -22.2756 -1.78902 20.5346
rtibia 29.4122
rfoot -15.1174 -3.39151
rtoes 3.50719
lfemur -21.9414 8.84667 -19.129
ltibia 28.2242
lfoot -13.7474 2.55891
ltoes -9.2144
222
root 0.543975 17.327 -14.5648 9.09711 -1.71609 -1.95327
lowerback 6.47878 -0.081062 0.774007
upperback 5.33745 -0.0972826 2.1848
thorax 1.8756 -0.0667441 1.8202
lowerneck -16.4515 0.930368 -2.03784
upperneck 20.1108 2.06587 -1.05908
head 9.02091 0.690151 0.234147
rclavicle -5.96354e-015 -9.14409e-015
rhumerus -16.7796 -8.85984 -83.4288
rradius 27.0638
rwrist 28.3216
rhand -19.9262 -26.0022
rfingers 7.12502
rthumb 6.41106 -55.8851
lclavicle -5.96354e-015 -9.14409e-015
lhumerus -17.0511 -8.74692 89.802
lradius 23.167
lwrist 8.70301
lhand -25.9308 -4.59183
lfingers 7.12502
lthumb 0.612586 25.387
rfemur -22.9493 -1.81255 20.5629
rtibia 29.9808
rfoot -15.2358 -3.37286
rtoes 3.37839
lfemur -22.6415 8.93836 -19.1821
ltibia 28.8432
lfoot -13.9024 2.54716
ltoes -9.2605
223
root 0.544464 17.309 -14.6003 9.31186 -1.72648 -1.97013
lowerback 6.7905 -0.0772652 0.787873
upperback 5.42609 -0.0872892 2.20192
thorax 1.7949 -0.0619228 1.83047
lowerneck -16.4751 0.943851 -2.01026
upperneck 19.7265 2.08366 -1.12311
head 8.89408 0.69929 0.208615
rclavicle 3.97569e-016 -2.34566e-014
rhumerus -16.7328 -8.96127 -83.2872
rradius 27.12
rwrist 28.2588
rhand -19.9377 -26.0186
rfingers 7.12502
rthumb 6.39993 -55.902
lclavicle 3.97569e-016 -2.34566e-014
lhumerus -17.0374 -8.6873 89.6497
lradius 23.189
lwrist 8.90523
lhand -26.0402 -4.62185
lfingers 7.12502
lthumb 0.506917 25.3573
rfemur -23.6348 -1.84391 20.5992
rtibia 30.5603
rfoot -15.3613 -3.35182
rtoes 3.26305
lfemur -23.359 9.02938 -19.2315
ltibia 29.4764
lfoot -14.0572 2.5299
ltoes -9.31612
224
root 0.544539 17.2901 -14.6367 9.53843 -1.7348 -1.98678
lowerback 7.1079 -0.0735254 0.795781
upperback 5.51207 -0.0773916 2.22144
thorax 1.7086 -0.0573596 1.84656
lowerneck -16.5018 0.960513 -1.98374
upperneck 19.3404 2.10631 -1.18944
head 8.76778 0.710463 0.183197
rclavicle -1.19271e-015 2.5842e-014
rhumerus -16.7026 -9.0676 -83.1353
rradius 27.1755
rwrist 28.1989
rhand -19.958 -26.0159
rfingers 7.12502
rthumb 6.38033 -55.8999
lclavicle -1.19271e-015 2.5842e-014
lhumerus -17.0327 -8.61348 89.4953
lradius 23.2034
lwrist 9.11356
lhand -26.1332 -4.61509
lfingers 7.12502
lthumb 0.417139 25.3642
rfemur -24.3429 -1.8737 20.6384
rtibia 31.1505
rfoot -15.4884 -3.33432
rtoes 3.1572
lfemur -24.1037 9.12021 -19.2829
ltibia 30.1241
lfoot -14.2091 2.5091
ltoes -9.37256
225
root 0.544489 17.2703 -14.6734 9.77415 -1.73885 -2.00988
lowerback 7.42946 -0.0700063 0.807804
upperback 5.59594 -0.067364 2.24495
thorax 1.6181 -0.052683 1.86444
lowerneck -16.5312 0.978407 -1.9535
upperneck 18.9532 2.13107 -1.26354
head 8.64225 0.722152 0.154906
rclavicle -1.59028e-015 0
rhumerus -16.6916 -9.17778 -82.9728
rradius 27.234
rwrist 28.1294
rhand -19.9818 -26.002
rfingers 7.12502
rthumb 6.35734 -55.8866
lclavicle -1.59028e-015 0
lhumerus -17.0427 -8.5198 89.3392
lradius 23.2168
lwrist 9.31373
lhand -26.1993 -4.58289
lfingers 7.12502
lthumb 0.353284 25.3966
rfemur -25.0667 -1.91037 20.6879
rtibia 31.7493
rfoot -15.6178 -3.31546
rtoes 3.05156
lfemur -24.8689 9.2074 -19.3288
ltibia 30.7859
lfoot -14.3615 2.48788
ltoes -9.42739
226
root 0.544116 17.2497 -14.7108 10.0217 -1.73758 -2.03994
lowerback 7.75717 -0.0665359 0.822282
upperback 5.67409 -0.056879 2.27289
thorax 1.51856 -0.0477676 1.88547
lowerneck -16.5548 0.99478 -1.92808
upperneck 18.5636 2.15393 -1.33578
head 8.51536 0.732974 0.127865
rclavicle -4.57205e-015 1.98785e-014
rhumerus -16.7054 -9.28626 -82.7994
rradius 27.297
rwrist 28.0438
rhand -20.0043 -25.9934
rfingers 7.12502
rthumb 6.33562 -55.8787
lclavicle -4.57205e-015 1.98785e-014
lhumerus -17.0651 -8.40684 89.1829
lradius 23.2208
lwrist 9.49997
lhand -26.2355 -4.52092
lfingers 7.12502
lthumb 0.318298 25.4586
rfemur -25.8105 -1.94986 20.7491
rtibia 32.3559
rfoot -15.7456 -3.29904
rtoes 2.94017
lfemur -25.6579 9.2892 -19.3679
ltibia 31.4608
lfoot -14.516 2.46783
ltoes -9.48383
227
root 0.543648 17.2282 -14.7487 10.2831 -1.73505 -2.07436
lowerback 8.08512 -0.0622819 0.83921
upperback 5.74823 -0.044959 2.30291
thorax 1.41498 -0.042098 1.90718
lowerneck -16.58 1.00946 -1.90794
upperneck 18.1769 2.17469 -1.40411
head 8.39015 0.7429 0.102872
rclavicle 2.98177e-015 5.96354e-015
rhumerus -16.7369 -9.39908 -82.6174
rradius 27.3575
rwrist 27.9525
rhand -20.0368 -25.9909
rfingers 7.12502
rthumb 6.3043 -55.877
lclavicle 2.98177e-015 5.96354e-015
lhumerus -17.1008 -8.27746 89.0259
lradius 23.2216
lwrist 9.66607
lhand -26.2543 -4.41895
lfingers 7.12502
lthumb 0.300141 25.5606
rfemur -26.576 -1.99285 20.8178
rtibia 32.9682
rfoot -15.8677 -3.27982
rtoes 2.82472
lfemur -26.4701 9.36391 -19.4042
ltibia 32.1466
lfoot -14.6736 2.45424
ltoes -9.5254
228
root 0.543188 17.206 -14.7872 10.5589 -1.73147 -2.11472
lowerback 8.4101 -0.0581846 0.863144
upperback 5.8208 -0.0326592 2.33327
thorax 1.3117 -0.0360584 1.92523
lowerneck -16.6102 1.02243 -1.89307
upperneck 17.7915 2.19259 -1.46471
head 8.26662 0.751984 0.0811154
rclavicle 1.19271e-015 2.82274e-014
rhumerus -16.7758 -9.52305 -82.4322
rradius 27.4058
rwrist 27.867
rhand -20.0748 -26.0074
rfingers 7.12502
rthumb 6.26762 -55.8946
lclavicle 1.19271e-015 2.82274e-014
lhumerus -17.1456 -8.14536 88.866
lradius 23.2165
lwrist 9.81428
lhand -26.2755 -4.30464
lfingers 7.12502
lthumb 0.27967 25.6749
rfemur -27.3646 -2.03969 20.8957
rtibia 33.5868
rfoot -15.9833 -3.25663
rtoes 2.7044
lfemur -27.3042 9.43024 -19.4364
ltibia 32.8413
lfoot -14.8332 2.44916
ltoes -9.55555
229
root 0.542812 17.183 -14.8261 10.8437 -1.73174 -2.15537
lowerback 8.73614 -0.0533477 0.889687
upperback 5.89407 -0.0189903 2.36043
thorax 1.20884 -0.0292303 1.93838
lowerneck -16.6496 1.0338 -1.88434
upperneck 17.4091 2.20744 -1.5136
head 8.14594 0.760413 0.0640475
rclavicle -7.15625e-015 -2.78299e-015
rhumerus -16.8226 -9.65628 -82.2454
rradius 27.443
rwrist 27.7922
rhand -20.1088 -26.0333
rfingers 7.12502
rthumb 6.23474 -55.9216
lclavicle -7.15625e-015 -2.78299e-015
lhumerus -17.1968 -8.0103 88.7019
lradius 23.1996
lwrist 9.93447
lhand -26.3186 -4.19386
lfingers 7.12502
lthumb 0.238003 25.7857
rfemur -28.1707 -2.08592 20.9749
rtibia 34.2126
rfoot -16.0938 -3.22891
rtoes 2.58
lfemur -28.151 9.49102 -19.4706
ltibia 33.5406
lfoot -14.9948 2.45503
ltoes -9.57792
230
root 0.542685 17.1593 -14.8655 11.1379 -1.73495 -2.19406
lowerback 9.06288 -0.0483345 0.921149
upperback 5.96806 -0.00452946 2.38159
thorax 1.10663 -0.0217901 1.94247
lowerneck -16.6938 1.04305 -1.87874
upperneck 17.0222 2.21772 -1.55164
head 8.02482 0.767716 0.0506262
rclavicle -7.95139e-016 1.15295e-014
rhumerus -16.8759 -9.80439 -82.0588
rradius 27.4665
rwrist 27.7402
rhand -20.1506 -26.0613
rfingers 7.12502
rthumb 6.19447 -55.9507
lclavicle -7.95139e-016 1.15295e-014
lhumerus -17.2584 -7.87838 88.5321
lradius 23.1747
lwrist 10.0283
lhand -26.3835 -4.07718
lfingers 7.12502
lthumb 0.17537 25.9025
rfemur -28.9959 -2.13373 21.0527
rtibia 34.8472
rfoot -16.201 -3.19646
rtoes 2.45527
lfemur -29.0103 9.543 -19.5099
ltibia 34.2414
lfoot -15.1537 2.4738
ltoes -9.60264
231
root 0.542823 17.1347 -14.9051 11.4339 -1.73969 -2.22651
lowerback 9.39792 -0.0438592 0.952296
upperback 6.04479 0.00955353 2.39621
thorax 1.00307 -0.0144643 1.93997
lowerneck -16.7335 1.0487 -1.88087
upperneck 16.6202 2.22142 -1.5751
head 7.89804 0.773217 0.0424921
rclavicle -3.97569e-016 -1.19271e-014
rhumerus -16.937 -9.9604 -81.8727
rradius 27.4809
rwrist 27.7028
rhand -20.1845 -26.0973
rfingers 7.12502
rthumb 6.16166 -55.9877
lclavicle -3.97569e-016 -1.19271e-014
lhumerus -17.328 -7.74758 88.3572
lradius 23.135
lwrist 10.0968
lhand -26.4697 -3.9871
lfingers 7.12502
lthumb 0.0920807 25.9926
rfemur -29.8307 -2.18286 21.1236
rtibia 35.4919
rfoot -16.3106 -3.16143
rtoes 2.33429
lfemur -29.8721 9.58369 -19.5571
ltibia 34.9405
lfoot -15.3083 2.50666
ltoes -9.63828
